<?xml version="1.0" standalone="no"?>
<!DOCTYPE svg PUBLIC "-//W3C//DTD SVG 20010904//EN"
 "http://www.w3.org/TR/2001/REC-SVG-20010904/DTD/svg10.dtd">
<svg version="1.0" xmlns="http://www.w3.org/2000/svg"
 width="700.000000pt" height="700.000000pt" viewBox="0 0 700.000000 700.000000"
 preserveAspectRatio="xMidYMid meet">
<metadata>
Created by potrace 1.11, written by Peter Selinger 2001-2013
</metadata>
<g transform="translate(0.000000,700.000000) scale(0.100000,-0.100000)"
fill="#000000" stroke="none">
<path d="M5528 6853 c-57 -76 -133 -178 -169 -228 -35 -49 -68 -94 -72 -100
-4 -5 -27 -37 -51 -70 -242 -339 -769 -1124 -983 -1465 -61 -96 -183 -299
-271 -450 -89 -151 -165 -280 -169 -286 -5 -5 -16 -26 -27 -45 -10 -19 -60
-105 -110 -192 -107 -186 -96 -167 -249 -427 -66 -113 -127 -218 -136 -235 -9
-16 -19 -31 -23 -33 -5 -2 -8 -7 -8 -12 0 -4 -57 -104 -126 -221 -69 -118
-136 -232 -149 -254 -12 -22 -60 -103 -105 -180 -46 -77 -91 -153 -100 -170
-10 -16 -163 -280 -342 -585 -179 -305 -439 -751 -578 -990 -295 -507 -347
-597 -410 -705 -70 -118 -100 -174 -100 -186 0 -25 25 3 83 93 66 103 176 273
342 528 56 85 140 214 186 285 47 72 154 237 239 367 219 335 448 691 830
1288 212 332 428 669 584 910 41 63 105 162 142 220 37 58 122 188 189 290
157 241 277 426 290 448 6 9 49 79 97 155 153 241 508 837 508 853 0 2 17 32
38 66 115 189 447 799 635 1168 149 294 152 300 133 300 -8 0 -61 -62 -118
-137z"/>
<path d="M3339 5166 c-2 -3 -22 -7 -44 -10 -157 -19 -369 -99 -505 -189 -97
-65 -104 -70 -170 -127 -114 -97 -217 -210 -325 -355 -60 -81 -87 -123 -167
-260 -77 -133 -171 -360 -207 -500 -52 -202 -63 -462 -27 -630 55 -257 177
-484 354 -661 79 -79 182 -164 182 -150 0 3 -15 36 -34 73 -51 103 -69 175
-70 288 0 55 2 118 6 140 4 22 10 54 13 70 20 105 123 341 223 512 248 424
321 547 354 596 21 32 38 60 38 62 0 5 53 88 218 340 132 202 184 269 292 376
184 182 351 261 562 263 38 1 68 2 68 3 0 0 -15 10 -33 21 -73 43 -232 96
-382 127 -35 8 -340 17 -346 11z"/>
<path d="M4595 4651 c91 -181 97 -377 19 -626 -37 -117 -127 -301 -244 -495
-5 -8 -48 -82 -96 -165 -94 -162 -255 -426 -349 -570 -32 -49 -73 -115 -93
-145 -105 -167 -200 -289 -301 -391 -102 -102 -144 -135 -231 -182 -112 -61
-185 -80 -312 -81 -43 -1 -78 -4 -78 -7 0 -20 210 -99 327 -123 156 -33 356
-37 497 -10 141 27 227 55 348 115 346 170 639 493 861 949 44 92 141 342 135
353 -1 1 4 25 11 52 29 122 39 225 36 360 -4 149 -6 168 -35 286 -40 163 -114
316 -223 461 -80 107 -219 240 -290 279 -14 8 -9 -7 18 -60z"/>
</g>
</svg>
