<?xml version="1.0" encoding="utf-8"?>
<!-- Generator: Adobe Illustrator 23.0.4, SVG Export Plug-In . SVG Version: 6.00 Build 0)  -->
<svg version="1.1" id="Layer_1" xmlns="http://www.w3.org/2000/svg" xmlns:xlink="http://www.w3.org/1999/xlink" x="0px" y="0px"
	 viewBox="0 0 45.5 73.8" style="enable-background:new 0 0 45.5 73.8;" xml:space="preserve">
<title>cocktail-curations-logo</title>
<path d="M33.9,23.9c0.5,1.1,2.9,4.1-1,10.9c0,0-1.9,3.3-3.6,6.1s-3.7,5.8-3.7,5.8c-4.5,6.7-7.7,5.9-9.3,6c2.5,1.5,12.7,5.1,20.3-7.4
	C44.4,32.8,36.4,25.5,33.9,23.9z"/>
<path d="M11.5,49.8c-0.6-1.4-2.9-4,1.1-11c0,0,1.8-3.1,3.5-5.9s3.8-5.9,3.8-5.9c4.3-6.6,8.2-5.8,9.2-5.9c-2.5-1.5-12.6-5.3-20.4,7.3
	C1.2,40.8,9.1,48.3,11.5,49.8z"/>
<path d="M35.2,19.2c3.6-6.2,7.1-12.5,10.3-19.1L45.3,0c-4.4,5.7-8.4,11.7-12.4,17.8s-7.4,12.4-11.1,18.6L10.9,54.9L0,73.6l0.2,0.1
	L12,55.7l11.7-18.2C27.5,31.4,31.6,25.4,35.2,19.2z"/>
</svg>
