<?xml version="1.0" encoding="utf-8"?>
<!-- Generator: Adobe Illustrator 23.0.4, SVG Export Plug-In . SVG Version: 6.00 Build 0)  -->
<svg version="1.1" id="Layer_1" xmlns="http://www.w3.org/2000/svg" xmlns:xlink="http://www.w3.org/1999/xlink" x="0px" y="0px"
	 viewBox="0 0 227.7 368.9" style="enable-background:new 0 0 227.7 368.9;" xml:space="preserve">
<style type="text/css">
	.st0{fill:#7F8C4F;}
	.st1{fill:#AD976E;}
</style>
<g>
	<g>
		<path class="st0" d="M169.7,119.8c2.6,5.6,14.4,20.3-5,54.5c0,0-9.4,16.6-17.9,30.5c-8.5,13.9-18.5,29.1-18.5,29.1
			c-22.4,33.7-38.7,29.6-46.5,30c12.3,7.5,63.6,25.3,101.6-36.8C222,164,182.2,127.5,169.7,119.8z"/>
		<path class="st0" d="M57.6,249c-3.1-7.1-14.4-20,5.7-55c0,0,8.8-15.5,17.5-29.8c8.7-14.2,19-29.8,19-29.8
			c21.7-32.9,40.9-29.1,46.2-29.3c-12.5-7.7-63.2-26.5-101.8,36.6C6.1,203.9,45.3,241.5,57.6,249z"/>
	</g>
	<path class="st1" d="M176.2,96c18.1-31.2,35.8-62.6,51.5-95.3L226.5,0c-22.1,28.7-42.1,58.6-62.1,88.8s-37.2,61.8-55.5,92.8
		l-54.5,93.1L0,368.2l1.1,0.7l59-90.6l58.4-91C137.7,157,158.1,127.2,176.2,96z"/>
</g>
</svg>
