<svg id="Layer_1" data-name="Layer 1" xmlns="http://www.w3.org/2000/svg" viewBox="0 0 177.71 288"><defs><style>.cls-1{fill:#fff;}</style></defs><title>cocktail-curations-icon-white</title><path class="cls-1" d="M132.5,93.5c2,4.33,11.25,15.81-3.9,42.52,0,0-7.34,12.92-14,23.77s-14.44,22.68-14.44,22.68C82.73,208.79,70,205.59,63.91,205.9c9.6,5.85,49.66,19.75,79.33-28.7C173.34,128,142.22,99.47,132.5,93.5Z"/><path class="cls-1" d="M44.94,194.38c-2.43-5.54-11.21-15.61,4.41-42.94,0,0,6.83-12.11,13.62-23.23S77.77,105,77.77,105c16.9-25.69,31.89-22.68,36.07-22.84-9.72-6-49.31-20.69-79.45,28.58C4.72,159.13,35.33,188.49,44.94,194.38Z"/><path class="cls-1" d="M137.54,74.92C151.67,50.56,165.45,26,177.71.55l-.9-.55C159.6,22.41,144,45.76,128.36,69.34s-29,48.25-43.33,72.45l-42.55,72.7L0,287.45l.9.55L47,217.26l45.59-71C107.52,122.51,123.45,99.28,137.54,74.92Z"/></svg>